<?xml version="1.0" encoding="iso-8859-1"?>
<!-- Generator: Adobe Illustrator 19.0.0, SVG Export Plug-In . SVG Version: 6.00 Build 0)  -->
<svg version="1.1" id="Capa_1" xmlns="http://www.w3.org/2000/svg" xmlns:xlink="http://www.w3.org/1999/xlink" x="0px" y="0px"
	 viewBox="0 0 478.208 478.208" style="enable-background:new 0 0 478.208 478.208;" xml:space="preserve">
<g>
	<g>
		<path d="M473.418,449.285L303.28,279.148c59.759-73.087,48.954-180.779-24.132-240.538S98.369-10.344,38.61,62.742
			S-10.344,243.521,62.742,303.28c62.953,51.473,153.453,51.473,216.406,0l170.138,170.138c6.78,6.548,17.584,6.36,24.132-0.42
			C479.805,466.384,479.805,455.899,473.418,449.285z M205.18,55.371c-1.198,8.41-8.4,14.659-16.895,14.659
			c-0.811,0.002-1.621-0.055-2.423-0.171c-4.851-0.687-9.744-1.034-14.643-1.041c-9.426,0-17.067-7.641-17.067-17.067
			s7.641-17.067,17.067-17.067c6.516,0,13.023,0.462,19.473,1.382C200.022,37.397,206.509,46.039,205.18,55.371z M290.685,188.285
			c-9.426,0-17.067-7.641-17.067-17.067c-0.025-33.523-16.427-64.919-43.93-84.087c-7.587-5.592-9.205-16.277-3.612-23.864
			c5.379-7.297,15.524-9.116,23.103-4.142c36.678,25.54,58.552,67.4,58.573,112.094C307.751,180.644,300.11,188.285,290.685,188.285
			z"/>
	</g>
</g>
<g>
</g>
<g>
</g>
<g>
</g>
<g>
</g>
<g>
</g>
<g>
</g>
<g>
</g>
<g>
</g>
<g>
</g>
<g>
</g>
<g>
</g>
<g>
</g>
<g>
</g>
<g>
</g>
<g>
</g>
</svg>
