<?xml version="1.0" encoding="iso-8859-1"?>
<!-- Generator: Adobe Illustrator 19.0.0, SVG Export Plug-In . SVG Version: 6.00 Build 0)  -->
<svg version="1.1" id="Capa_1" xmlns="http://www.w3.org/2000/svg" xmlns:xlink="http://www.w3.org/1999/xlink" x="0px" y="0px"
	 viewBox="0 0 512 512" style="enable-background:new 0 0 512 512;" xml:space="preserve">
<g>
	<g>
		<g>
			<path d="M400,0H112C50.144,0,0,50.144,0,112v288c0,61.856,50.144,112,112,112h288c61.856,0,112-50.144,112-112V112
				C512,50.144,461.856,0,400,0z M480,400c0,44.183-35.817,80-80,80H112c-44.183,0-80-35.817-80-80V112c0-44.183,35.817-80,80-80
				h288c44.183,0,80,35.817,80,80V400z"/>
			<path d="M320,208c0.132-61.856-49.905-112.107-111.76-112.239C146.384,95.629,96.133,145.666,96,207.521
				c-0.132,61.856,49.905,112.107,111.76,112.239c24.178,0.052,47.724-7.722,67.119-22.16l113.76,113.76l22.56-22.56L297.6,274.88
				C312.075,255.581,319.931,232.124,320,208z M208,288c-44.183,0-80-35.817-80-80s35.817-80,80-80s80,35.817,80,80
				S252.183,288,208,288z"/>
		</g>
	</g>
</g>
<g>
</g>
<g>
</g>
<g>
</g>
<g>
</g>
<g>
</g>
<g>
</g>
<g>
</g>
<g>
</g>
<g>
</g>
<g>
</g>
<g>
</g>
<g>
</g>
<g>
</g>
<g>
</g>
<g>
</g>
</svg>
